# Blender v3.1.2 OBJ File: ''
# www.blender.org
mtllib Testingplay.mtl
o Cube
v 12.597500 -0.791403 -12.597500
v 12.597500 -1.119178 -12.597500
v 12.597500 -0.791403 12.597500
v 12.597500 -1.119178 12.597500
v -12.597500 -0.791403 -12.597500
v -12.597500 -1.119178 -12.597500
v -12.597500 -0.791403 12.597500
v -12.597500 -1.119178 12.597500
v -12.597500 -1.119178 -11.813908
v -12.597500 -1.119178 12.001416
v 12.597500 -0.791403 -11.813908
v 12.597500 -0.791403 12.001416
v -12.597500 -0.791403 12.001416
v -12.597500 -0.791403 -11.813908
v 12.597500 -1.119178 12.001416
v 12.597500 -1.119178 -11.813908
v 11.440151 -1.119178 -12.597500
v 11.440151 -0.791403 12.597500
v 11.440151 -1.119178 12.597500
v 11.440151 -0.791403 -12.597500
v 11.440151 -1.119178 -11.813908
v 11.440151 -1.119178 12.001416
v 11.440151 -0.791403 -11.813908
v 11.440151 -0.791403 12.001416
v -11.451652 -1.119178 -12.597500
v -11.451652 -0.791403 12.597500
v -11.451652 -1.119178 -11.813908
v -11.451652 -1.119178 12.001416
v -11.451652 -1.119178 12.597500
v -11.451652 -0.791403 -12.597500
v -11.451652 -0.791403 -11.813908
v -11.451652 -0.791403 12.001416
v -11.451652 4.923713 12.597500
v -12.597500 4.923713 12.597500
v 12.597500 4.923713 12.001416
v 12.597500 4.923713 12.597500
v -12.597500 4.923713 -11.813908
v -12.597500 4.923713 -12.597500
v 11.440151 4.923713 -12.597500
v 12.597500 4.923713 -12.597500
v 12.597500 4.923713 -11.813908
v -12.597500 4.923713 12.001416
v 11.440151 4.923713 -11.813908
v 11.440151 4.923713 12.001416
v 11.440151 4.923713 12.597500
v -11.451652 4.923713 -12.597500
v -11.451652 4.923713 -11.813908
v -11.451652 4.923713 12.001416
vt 0.625000 0.761484
vt 0.625000 0.750000
vt 0.625000 0.750000
vt 0.625000 0.761484
vt 0.375000 0.988630
vt 0.625000 0.988630
vt 0.625000 1.000000
vt 0.375000 1.000000
vt 0.375000 0.242225
vt 0.625000 0.242225
vt 0.625000 0.250000
vt 0.375000 0.250000
vt 0.363516 0.665500
vt 0.375000 0.665500
vt 0.375000 0.750000
vt 0.363516 0.750000
vt 0.625000 0.665500
vt 0.375000 0.488516
vt 0.625000 0.488516
vt 0.625000 0.500000
vt 0.375000 0.500000
vt 0.625000 0.507775
vt 0.375000 0.507775
vt 0.363516 0.500000
vt 0.363516 0.507775
vt 0.375000 0.000000
vt 0.625000 0.000000
vt 0.625000 0.084500
vt 0.375000 0.084500
vt 0.625000 0.500000
vt 0.625000 0.507775
vt 0.636484 0.507775
vt 0.636484 0.665500
vt 0.636484 0.665500
vt 0.636484 0.507775
vt 0.625000 0.988630
vt 0.625000 1.000000
vt 0.863630 0.665500
vt 0.863630 0.665500
vt 0.136370 0.507775
vt 0.136370 0.665500
vt 0.136370 0.500000
vt 0.375000 0.261370
vt 0.625000 0.261370
vt 0.136370 0.750000
vt 0.375000 0.761484
vt 0.625000 0.250000
vt 0.625000 0.261370
vt 0.125000 0.665500
vt 0.125000 0.750000
vt 0.125000 0.500000
vt 0.125000 0.507775
vt 0.863630 0.507775
vt 0.863630 0.507775
vt 0.875000 0.665500
vt 0.875000 0.750000
vt 0.863630 0.750000
vt 0.863630 0.500000
vt 0.875000 0.500000
vt 0.875000 0.507775
vt 0.625000 0.665500
vt 0.636484 0.500000
vt 0.636484 0.750000
vt 0.625000 0.000000
vt 0.625000 0.084500
vt 0.625000 0.488516
vt 0.625000 0.242225
vn 0.0000 0.0000 1.0000
vn -1.0000 0.0000 0.0000
vn 0.0000 -1.0000 0.0000
vn 1.0000 0.0000 0.0000
vn 0.0000 0.0000 -1.0000
vn 0.0000 1.0000 0.0000
usemtl Material
s off
f 18/1/1 3/2/1 36/3/1 45/4/1
f 29/5/1 26/6/1 7/7/1 8/8/1
f 9/9/2 14/10/2 5/11/2 6/12/2
f 22/13/3 15/14/3 4/15/3 19/16/3
f 15/14/4 12/17/4 3/2/4 4/15/4
f 17/18/5 20/19/5 1/20/5 2/21/5
f 2/21/4 1/20/4 11/22/4 16/23/4
f 16/23/4 11/22/4 12/17/4 15/14/4
f 17/24/3 2/21/3 16/23/3 21/25/3
f 21/25/3 16/23/3 15/14/3 22/13/3
f 8/26/2 7/27/2 13/28/2 10/29/2
f 10/29/2 13/28/2 14/10/2 9/9/2
f 11/22/4 1/20/4 40/30/4 41/31/4
f 23/32/2 24/33/2 44/34/2 43/35/2
f 7/7/1 26/6/1 33/36/1 34/37/1
f 24/33/5 32/38/5 48/39/5 44/34/5
f 27/40/3 21/25/3 22/13/3 28/41/3
f 25/42/3 17/24/3 21/25/3 27/40/3
f 25/43/5 30/44/5 20/19/5 17/18/5
f 28/41/3 22/13/3 19/16/3 29/45/3
f 4/15/1 3/2/1 18/1/1 19/46/1
f 30/44/5 5/11/5 38/47/5 46/48/5
f 10/49/3 28/41/3 29/45/3 8/50/3
f 6/12/5 5/11/5 30/44/5 25/43/5
f 6/51/3 25/42/3 27/40/3 9/52/3
f 9/52/3 27/40/3 28/41/3 10/49/3
f 23/32/6 31/53/6 32/38/6 24/33/6
f 31/53/1 23/32/1 43/35/1 47/54/1
f 19/46/1 18/1/1 26/6/1 29/5/1
f 32/38/4 31/53/4 47/54/4 48/39/4
f 48/39/6 42/55/6 34/56/6 33/57/6
f 46/58/6 38/59/6 37/60/6 47/54/6
f 47/54/6 37/60/6 42/55/6 48/39/6
f 41/31/6 43/35/6 44/34/6 35/61/6
f 40/30/6 39/62/6 43/35/6 41/31/6
f 35/61/6 44/34/6 45/63/6 36/3/6
f 39/62/6 46/58/6 47/54/6 43/35/6
f 44/34/6 48/39/6 33/57/6 45/63/6
f 3/2/4 12/17/4 35/61/4 36/3/4
f 12/17/4 11/22/4 41/31/4 35/61/4
f 26/6/1 18/1/1 45/4/1 33/36/1
f 13/28/2 7/27/2 34/64/2 42/65/2
f 20/19/5 30/44/5 46/48/5 39/66/5
f 5/11/2 14/10/2 37/67/2 38/47/2
f 14/10/2 13/28/2 42/65/2 37/67/2
f 1/20/5 20/19/5 39/66/5 40/30/5
o Cube.001
v 6.138346 -0.848994 1.000000
v 6.138346 6.820671 1.000000
v 6.138346 -0.848994 -1.000000
v 6.138346 6.820671 -1.000000
v 8.138346 -0.848994 1.000000
v 8.138346 6.820671 1.000000
v 8.138346 -0.848994 -1.000000
v 8.138346 6.820671 -1.000000
vt 0.375000 0.000000
vt 0.625000 0.000000
vt 0.625000 0.250000
vt 0.375000 0.250000
vt 0.625000 0.500000
vt 0.375000 0.500000
vt 0.625000 0.750000
vt 0.375000 0.750000
vt 0.625000 1.000000
vt 0.375000 1.000000
vt 0.125000 0.500000
vt 0.125000 0.750000
vt 0.875000 0.500000
vt 0.875000 0.750000
vn -1.0000 0.0000 0.0000
vn 0.0000 0.0000 -1.0000
vn 1.0000 0.0000 0.0000
vn 0.0000 0.0000 1.0000
vn 0.0000 -1.0000 0.0000
vn 0.0000 1.0000 0.0000
usemtl None
s off
f 49/68/7 50/69/7 52/70/7 51/71/7
f 51/71/8 52/70/8 56/72/8 55/73/8
f 55/73/9 56/72/9 54/74/9 53/75/9
f 53/75/10 54/74/10 50/76/10 49/77/10
f 51/78/11 55/73/11 53/75/11 49/79/11
f 56/72/12 52/80/12 50/81/12 54/74/12
o Cube.002
v -8.655636 -0.848994 -6.600464
v -8.655636 6.820671 -6.600464
v -8.655636 -0.848994 -8.600464
v -8.655636 6.820671 -8.600464
v -6.655636 -0.848994 -6.600464
v -6.655636 6.820671 -6.600464
v -6.655636 -0.848994 -8.600464
v -6.655636 6.820671 -8.600464
vt 0.375000 0.000000
vt 0.625000 0.000000
vt 0.625000 0.250000
vt 0.375000 0.250000
vt 0.625000 0.500000
vt 0.375000 0.500000
vt 0.625000 0.750000
vt 0.375000 0.750000
vt 0.625000 1.000000
vt 0.375000 1.000000
vt 0.125000 0.500000
vt 0.125000 0.750000
vt 0.875000 0.500000
vt 0.875000 0.750000
vn -1.0000 0.0000 0.0000
vn 0.0000 0.0000 -1.0000
vn 1.0000 0.0000 0.0000
vn 0.0000 0.0000 1.0000
vn 0.0000 -1.0000 0.0000
vn 0.0000 1.0000 0.0000
usemtl None
s off
f 57/82/13 58/83/13 60/84/13 59/85/13
f 59/85/14 60/84/14 64/86/14 63/87/14
f 63/87/15 64/86/15 62/88/15 61/89/15
f 61/89/16 62/88/16 58/90/16 57/91/16
f 59/92/17 63/87/17 61/89/17 57/93/17
f 64/86/18 60/94/18 58/95/18 62/88/18
o Cone
v -6.221985 -0.543080 3.547096
v -5.741174 -0.543080 3.594452
v -5.278841 -0.543080 3.734699
v -4.852751 -0.543080 3.962449
v -4.479281 -0.543080 4.268948
v -4.172781 -0.543080 4.642418
v -3.945032 -0.543080 5.068508
v -3.804785 -0.543080 5.530841
v -3.757429 -0.543080 6.011652
v -3.804785 -0.543080 6.492464
v -3.945032 -0.543080 6.954797
v -4.172781 -0.543080 7.380887
v -4.479281 -0.543080 7.754357
v -4.852751 -0.543080 8.060856
v -5.278840 -0.543080 8.288606
v -5.741174 -0.543080 8.428853
v -6.221985 -0.543080 8.476209
v -6.702796 -0.543080 8.428853
v -7.165130 -0.543080 8.288606
v -7.591220 -0.543080 8.060856
v -7.964690 -0.543080 7.754357
v -8.271189 -0.543080 7.380887
v -8.498939 -0.543080 6.954798
v -8.639186 -0.543080 6.492464
v -8.686542 -0.543080 6.011652
v -8.639186 -0.543080 5.530841
v -8.498939 -0.543080 5.068507
v -8.271190 -0.543080 4.642419
v -7.964690 -0.543080 4.268948
v -7.591220 -0.543080 3.962449
v -7.165130 -0.543080 3.734699
v -6.702796 -0.543080 3.594452
v -6.221985 4.386033 6.011652
vt 0.250000 0.490000
vt 0.250000 0.250000
vt 0.296822 0.485388
vt 0.341844 0.471731
vt 0.383337 0.449553
vt 0.419706 0.419706
vt 0.449553 0.383337
vt 0.471731 0.341844
vt 0.485388 0.296822
vt 0.490000 0.250000
vt 0.485388 0.203178
vt 0.471731 0.158156
vt 0.449553 0.116663
vt 0.419706 0.080294
vt 0.383337 0.050447
vt 0.341844 0.028269
vt 0.296822 0.014612
vt 0.250000 0.010000
vt 0.203178 0.014612
vt 0.158156 0.028269
vt 0.116663 0.050447
vt 0.080294 0.080294
vt 0.050447 0.116663
vt 0.028269 0.158156
vt 0.014612 0.203178
vt 0.010000 0.250000
vt 0.014612 0.296822
vt 0.028269 0.341844
vt 0.050447 0.383337
vt 0.080294 0.419706
vt 0.116663 0.449553
vt 0.158156 0.471731
vt 0.750000 0.490000
vt 0.796822 0.485388
vt 0.841844 0.471731
vt 0.883337 0.449553
vt 0.919706 0.419706
vt 0.949553 0.383337
vt 0.971731 0.341844
vt 0.985388 0.296822
vt 0.990000 0.250000
vt 0.985388 0.203178
vt 0.971731 0.158156
vt 0.949553 0.116663
vt 0.919706 0.080294
vt 0.883337 0.050447
vt 0.841844 0.028269
vt 0.796822 0.014612
vt 0.750000 0.010000
vt 0.703178 0.014612
vt 0.658156 0.028269
vt 0.616663 0.050447
vt 0.580294 0.080294
vt 0.550447 0.116663
vt 0.528269 0.158156
vt 0.514612 0.203178
vt 0.510000 0.250000
vt 0.514612 0.296822
vt 0.528269 0.341844
vt 0.550447 0.383337
vt 0.580294 0.419706
vt 0.616663 0.449553
vt 0.658156 0.471731
vt 0.703178 0.485388
vt 0.203178 0.485388
vn 0.0878 0.4455 -0.8910
vn 0.2599 0.4455 -0.8567
vn 0.4220 0.4455 -0.7896
vn 0.5680 0.4455 -0.6921
vn 0.6921 0.4455 -0.5680
vn 0.7896 0.4455 -0.4220
vn 0.8567 0.4455 -0.2599
vn 0.8910 0.4455 -0.0878
vn 0.8910 0.4455 0.0878
vn 0.8567 0.4455 0.2599
vn 0.7896 0.4455 0.4220
vn 0.6921 0.4455 0.5680
vn 0.5680 0.4455 0.6921
vn 0.4220 0.4455 0.7896
vn 0.2599 0.4455 0.8567
vn 0.0878 0.4455 0.8910
vn -0.0878 0.4455 0.8910
vn -0.2599 0.4455 0.8567
vn -0.4220 0.4455 0.7896
vn -0.5680 0.4455 0.6921
vn -0.6921 0.4455 0.5680
vn -0.7896 0.4455 0.4220
vn -0.8567 0.4455 0.2599
vn -0.8910 0.4455 0.0878
vn -0.8910 0.4455 -0.0878
vn -0.8567 0.4455 -0.2599
vn -0.7896 0.4455 -0.4220
vn -0.6921 0.4455 -0.5680
vn -0.5680 0.4455 -0.6921
vn -0.4220 0.4455 -0.7896
vn 0.0000 -1.0000 0.0000
vn -0.2599 0.4455 -0.8567
vn -0.0878 0.4455 -0.8910
usemtl None
s off
f 65/96/19 97/97/19 66/98/19
f 66/98/20 97/97/20 67/99/20
f 67/99/21 97/97/21 68/100/21
f 68/100/22 97/97/22 69/101/22
f 69/101/23 97/97/23 70/102/23
f 70/102/24 97/97/24 71/103/24
f 71/103/25 97/97/25 72/104/25
f 72/104/26 97/97/26 73/105/26
f 73/105/27 97/97/27 74/106/27
f 74/106/28 97/97/28 75/107/28
f 75/107/29 97/97/29 76/108/29
f 76/108/30 97/97/30 77/109/30
f 77/109/31 97/97/31 78/110/31
f 78/110/32 97/97/32 79/111/32
f 79/111/33 97/97/33 80/112/33
f 80/112/34 97/97/34 81/113/34
f 81/113/35 97/97/35 82/114/35
f 82/114/36 97/97/36 83/115/36
f 83/115/37 97/97/37 84/116/37
f 84/116/38 97/97/38 85/117/38
f 85/117/39 97/97/39 86/118/39
f 86/118/40 97/97/40 87/119/40
f 87/119/41 97/97/41 88/120/41
f 88/120/42 97/97/42 89/121/42
f 89/121/43 97/97/43 90/122/43
f 90/122/44 97/97/44 91/123/44
f 91/123/45 97/97/45 92/124/45
f 92/124/46 97/97/46 93/125/46
f 93/125/47 97/97/47 94/126/47
f 94/126/48 97/97/48 95/127/48
f 65/128/49 66/129/49 67/130/49 68/131/49 69/132/49 70/133/49 71/134/49 72/135/49 73/136/49 74/137/49 75/138/49 76/139/49 77/140/49 78/141/49 79/142/49 80/143/49 81/144/49 82/145/49 83/146/49 84/147/49 85/148/49 86/149/49 87/150/49 88/151/49 89/152/49 90/153/49 91/154/49 92/155/49 93/156/49 94/157/49 95/158/49 96/159/49
f 95/127/50 97/97/50 96/160/50
f 96/160/51 97/97/51 65/96/51
